<svg xmlns="http://www.w3.org/2000/svg" xmlns:xlink="http://www.w3.org/1999/xlink" width="180" zoomAndPan="magnify" viewBox="0 0 135 135.000003" height="180" preserveAspectRatio="xMidYMid meet" version="1.0"><defs><clipPath id="63011f53a3"><path d="M 0.496094 0 L 134.503906 0 L 134.503906 134.007812 L 0.496094 134.007812 Z M 0.496094 0 " clip-rule="nonzero"/></clipPath></defs><g clip-path="url(#63011f53a3)"><path fill="#ffffff" d="M 0.496094 0 L 134.503906 0 L 134.503906 134.007812 L 0.496094 134.007812 Z M 0.496094 0 " fill-opacity="1" fill-rule="nonzero"/><path fill="#ffffff" d="M 0.496094 0 L 134.503906 0 L 134.503906 134.007812 L 0.496094 134.007812 Z M 0.496094 0 " fill-opacity="1" fill-rule="nonzero"/><path fill="#ffffff" d="M 0.496094 0 L 134.503906 0 L 134.503906 134.007812 L 0.496094 134.007812 Z M 0.496094 0 " fill-opacity="1" fill-rule="nonzero"/></g><path stroke-linecap="butt" transform="matrix(4.060829, 0, 0, 4.060829, 0.496322, 0.00000694853)" fill-opacity="1" fill="#ffffff" fill-rule="nonzero" stroke-linejoin="miter" d="M 1.999805 2.500065 L 8.9998 2.500065 M 10.000212 2.500065 L 10.999661 2.500065 M 12.999523 2.500065 L 13.999934 2.500065 M 15.999795 2.500065 L 17.000207 2.500065 M 20.999929 2.500065 L 22.000341 2.500065 M 24.000202 2.500065 L 31.000197 2.500065 M 1.999805 3.500477 L 3.000217 3.500477 M 8.000351 3.500477 L 8.9998 3.500477 M 10.000212 3.500477 L 15.999795 3.500477 M 17.999657 3.500477 L 20.999929 3.500477 M 22.000341 3.500477 L 22.999791 3.500477 M 24.000202 3.500477 L 24.999652 3.500477 M 29.999786 3.500477 L 31.000197 3.500477 M 1.999805 4.499927 L 3.000217 4.499927 M 3.999666 4.499927 L 6.999939 4.499927 M 8.000351 4.499927 L 8.9998 4.499927 M 10.999661 4.499927 L 12.999523 4.499927 M 13.999934 4.499927 L 19.000068 4.499927 M 24.000202 4.499927 L 24.999652 4.499927 M 26.000063 4.499927 L 29.000336 4.499927 M 29.999786 4.499927 L 31.000197 4.499927 M 1.999805 5.500338 L 3.000217 5.500338 M 3.999666 5.500338 L 6.999939 5.500338 M 8.000351 5.500338 L 8.9998 5.500338 M 10.000212 5.500338 L 10.999661 5.500338 M 12.000073 5.500338 L 13.999934 5.500338 M 19.000068 5.500338 L 20.999929 5.500338 M 22.000341 5.500338 L 22.999791 5.500338 M 24.000202 5.500338 L 24.999652 5.500338 M 26.000063 5.500338 L 29.000336 5.500338 M 29.999786 5.500338 L 31.000197 5.500338 M 1.999805 6.499788 L 3.000217 6.499788 M 3.999666 6.499788 L 6.999939 6.499788 M 8.000351 6.499788 L 8.9998 6.499788 M 10.999661 6.499788 L 12.000073 6.499788 M 12.999523 6.499788 L 20.999929 6.499788 M 24.000202 6.499788 L 24.999652 6.499788 M 26.000063 6.499788 L 29.000336 6.499788 M 29.999786 6.499788 L 31.000197 6.499788 M 1.999805 7.500199 L 3.000217 7.500199 M 8.000351 7.500199 L 8.9998 7.500199 M 10.999661 7.500199 L 12.000073 7.500199 M 12.999523 7.500199 L 13.999934 7.500199 M 15.999795 7.500199 L 17.000207 7.500199 M 19.000068 7.500199 L 20.00048 7.500199 M 20.999929 7.500199 L 22.999791 7.500199 M 24.000202 7.500199 L 24.999652 7.500199 M 29.999786 7.500199 L 31.000197 7.500199 M 1.999805 8.499649 L 8.9998 8.499649 M 10.000212 8.499649 L 10.999661 8.499649 M 12.000073 8.499649 L 12.999523 8.499649 M 13.999934 8.499649 L 15.000346 8.499649 M 15.999795 8.499649 L 17.000207 8.499649 M 17.999657 8.499649 L 19.000068 8.499649 M 20.00048 8.499649 L 20.999929 8.499649 M 22.000341 8.499649 L 22.999791 8.499649 M 24.000202 8.499649 L 31.000197 8.499649 M 10.000212 9.500061 L 10.999661 9.500061 M 12.000073 9.500061 L 12.999523 9.500061 M 13.999934 9.500061 L 17.000207 9.500061 M 19.000068 9.500061 L 22.000341 9.500061 M 1.999805 10.500472 L 3.000217 10.500472 M 3.999666 10.500472 L 5.999527 10.500472 M 6.999939 10.500472 L 10.000212 10.500472 M 10.999661 10.500472 L 12.000073 10.500472 M 15.000346 10.500472 L 19.000068 10.500472 M 20.00048 10.500472 L 20.999929 10.500472 M 24.000202 10.500472 L 24.999652 10.500472 M 27.000475 10.500472 L 27.999925 10.500472 M 29.000336 10.500472 L 31.000197 10.500472 M 8.9998 11.499922 L 10.000212 11.499922 M 10.999661 11.499922 L 12.000073 11.499922 M 13.999934 11.499922 L 15.000346 11.499922 M 17.999657 11.499922 L 19.000068 11.499922 M 20.999929 11.499922 L 27.000475 11.499922 M 29.999786 11.499922 L 31.000197 11.499922 M 5.999527 12.500333 L 6.999939 12.500333 M 8.000351 12.500333 L 8.9998 12.500333 M 10.999661 12.500333 L 12.999523 12.500333 M 15.999795 12.500333 L 17.000207 12.500333 M 19.000068 12.500333 L 20.00048 12.500333 M 22.999791 12.500333 L 24.000202 12.500333 M 24.999652 12.500333 L 27.000475 12.500333 M 27.999925 12.500333 L 29.999786 12.500333 M 3.000217 13.499783 L 3.999666 13.499783 M 6.999939 13.499783 L 8.000351 13.499783 M 8.9998 13.499783 L 12.000073 13.499783 M 12.999523 13.499783 L 17.000207 13.499783 M 17.999657 13.499783 L 19.000068 13.499783 M 22.000341 13.499783 L 24.000202 13.499783 M 24.999652 13.499783 L 27.000475 13.499783 M 29.999786 13.499783 L 31.000197 13.499783 M 3.000217 14.500195 L 3.999666 14.500195 M 5.999527 14.500195 L 6.999939 14.500195 M 8.000351 14.500195 L 10.000212 14.500195 M 12.000073 14.500195 L 15.000346 14.500195 M 19.000068 14.500195 L 20.00048 14.500195 M 20.999929 14.500195 L 22.000341 14.500195 M 27.000475 14.500195 L 29.000336 14.500195 M 1.999805 15.499644 L 3.000217 15.499644 M 3.999666 15.499644 L 5.000078 15.499644 M 10.000212 15.499644 L 10.999661 15.499644 M 13.999934 15.499644 L 15.999795 15.499644 M 17.999657 15.499644 L 19.000068 15.499644 M 20.999929 15.499644 L 22.999791 15.499644 M 24.000202 15.499644 L 26.000063 15.499644 M 27.999925 15.499644 L 31.000197 15.499644 M 3.000217 16.500056 L 3.999666 16.500056 M 5.000078 16.500056 L 6.999939 16.500056 M 8.000351 16.500056 L 8.9998 16.500056 M 10.000212 16.500056 L 10.999661 16.500056 M 15.999795 16.500056 L 17.000207 16.500056 M 19.000068 16.500056 L 20.00048 16.500056 M 20.999929 16.500056 L 24.000202 16.500056 M 24.999652 16.500056 L 27.000475 16.500056 M 27.999925 16.500056 L 31.000197 16.500056 M 1.999805 17.500467 L 5.000078 17.500467 M 10.000212 17.500467 L 10.999661 17.500467 M 12.000073 17.500467 L 12.999523 17.500467 M 13.999934 17.500467 L 15.999795 17.500467 M 17.999657 17.500467 L 19.000068 17.500467 M 20.999929 17.500467 L 22.000341 17.500467 M 22.999791 17.500467 L 24.000202 17.500467 M 24.999652 17.500467 L 26.000063 17.500467 M 29.000336 17.500467 L 29.999786 17.500467 M 3.000217 18.499917 L 3.999666 18.499917 M 5.999527 18.499917 L 6.999939 18.499917 M 8.000351 18.499917 L 8.9998 18.499917 M 10.000212 18.499917 L 10.999661 18.499917 M 17.999657 18.499917 L 20.999929 18.499917 M 24.999652 18.499917 L 27.999925 18.499917 M 29.000336 18.499917 L 29.999786 18.499917 M 5.000078 19.500329 L 5.999527 19.500329 M 6.999939 19.500329 L 8.000351 19.500329 M 8.9998 19.500329 L 10.999661 19.500329 M 12.999523 19.500329 L 13.999934 19.500329 M 15.000346 19.500329 L 15.999795 19.500329 M 17.000207 19.500329 L 19.000068 19.500329 M 22.000341 19.500329 L 22.999791 19.500329 M 24.999652 19.500329 L 26.000063 19.500329 M 27.000475 19.500329 L 29.999786 19.500329 M 1.999805 20.499778 L 3.000217 20.499778 M 3.999666 20.499778 L 5.000078 20.499778 M 8.000351 20.499778 L 8.9998 20.499778 M 13.999934 20.499778 L 15.000346 20.499778 M 17.000207 20.499778 L 19.000068 20.499778 M 24.000202 20.499778 L 26.000063 20.499778 M 27.999925 20.499778 L 29.000336 20.499778 M 3.999666 21.50019 L 5.000078 21.50019 M 6.999939 21.50019 L 8.000351 21.50019 M 8.9998 21.50019 L 10.000212 21.50019 M 13.999934 21.50019 L 15.000346 21.50019 M 17.000207 21.50019 L 17.999657 21.50019 M 19.000068 21.50019 L 20.999929 21.50019 M 22.000341 21.50019 L 24.999652 21.50019 M 26.000063 21.50019 L 27.000475 21.50019 M 27.999925 21.50019 L 29.000336 21.50019 M 3.000217 22.499639 L 3.999666 22.499639 M 5.999527 22.499639 L 8.9998 22.499639 M 10.999661 22.499639 L 12.000073 22.499639 M 13.999934 22.499639 L 15.999795 22.499639 M 17.999657 22.499639 L 20.00048 22.499639 M 20.999929 22.499639 L 29.000336 22.499639 M 10.000212 23.500051 L 10.999661 23.500051 M 12.999523 23.500051 L 13.999934 23.500051 M 15.000346 23.500051 L 17.000207 23.500051 M 17.999657 23.500051 L 19.000068 23.500051 M 20.999929 23.500051 L 22.999791 23.500051 M 26.000063 23.500051 L 31.000197 23.500051 M 1.999805 24.500463 L 8.9998 24.500463 M 10.000212 24.500463 L 10.999661 24.500463 M 15.000346 24.500463 L 15.999795 24.500463 M 17.999657 24.500463 L 22.999791 24.500463 M 24.000202 24.500463 L 24.999652 24.500463 M 26.000063 24.500463 L 27.999925 24.500463 M 29.000336 24.500463 L 29.999786 24.500463 M 1.999805 25.499912 L 3.000217 25.499912 M 8.000351 25.499912 L 8.9998 25.499912 M 10.000212 25.499912 L 10.999661 25.499912 M 12.000073 25.499912 L 13.999934 25.499912 M 17.999657 25.499912 L 19.000068 25.499912 M 20.00048 25.499912 L 20.999929 25.499912 M 22.000341 25.499912 L 22.999791 25.499912 M 26.000063 25.499912 L 27.999925 25.499912 M 29.000336 25.499912 L 31.000197 25.499912 M 1.999805 26.500324 L 3.000217 26.500324 M 3.999666 26.500324 L 6.999939 26.500324 M 8.000351 26.500324 L 8.9998 26.500324 M 12.000073 26.500324 L 13.999934 26.500324 M 15.999795 26.500324 L 17.000207 26.500324 M 17.999657 26.500324 L 19.000068 26.500324 M 22.000341 26.500324 L 27.000475 26.500324 M 27.999925 26.500324 L 29.000336 26.500324 M 1.999805 27.499773 L 3.000217 27.499773 M 3.999666 27.499773 L 6.999939 27.499773 M 8.000351 27.499773 L 8.9998 27.499773 M 10.000212 27.499773 L 12.999523 27.499773 M 13.999934 27.499773 L 15.000346 27.499773 M 15.999795 27.499773 L 17.999657 27.499773 M 19.000068 27.499773 L 20.00048 27.499773 M 20.999929 27.499773 L 24.000202 27.499773 M 24.999652 27.499773 L 27.999925 27.499773 M 29.999786 27.499773 L 31.000197 27.499773 M 1.999805 28.500185 L 3.000217 28.500185 M 3.999666 28.500185 L 6.999939 28.500185 M 8.000351 28.500185 L 8.9998 28.500185 M 10.000212 28.500185 L 15.000346 28.500185 M 19.000068 28.500185 L 20.00048 28.500185 M 20.999929 28.500185 L 22.000341 28.500185 M 24.999652 28.500185 L 26.000063 28.500185 M 27.999925 28.500185 L 29.000336 28.500185 M 29.999786 28.500185 L 31.000197 28.500185 M 1.999805 29.499635 L 3.000217 29.499635 M 8.000351 29.499635 L 8.9998 29.499635 M 12.000073 29.499635 L 19.000068 29.499635 M 20.00048 29.499635 L 20.999929 29.499635 M 22.000341 29.499635 L 22.999791 29.499635 M 24.000202 29.499635 L 26.000063 29.499635 M 27.000475 29.499635 L 27.999925 29.499635 M 29.000336 29.499635 L 29.999786 29.499635 M 1.999805 30.500046 L 8.9998 30.500046 M 10.000212 30.500046 L 15.000346 30.500046 M 17.999657 30.500046 L 19.000068 30.500046 M 20.999929 30.500046 L 24.000202 30.500046 M 29.000336 30.500046 L 29.999786 30.500046 " stroke="#000000" stroke-width="1" stroke-opacity="1" stroke-miterlimit="4"/></svg>